Coordinates
version=1
nRows=7
nColumns=33
inDegrees=yes

Units are S.I. units (second, meters, Newtons, ...)
Angles are in degrees.

endheader
time	ground_thorax_rot_x	ground_thorax_rot_y	ground_thorax_rot_z	ground_thorax_tx	ground_thorax_ty	ground_thorax_tz	clav_prot_r	clav_elev_r	scapula_abduction_r	scapula_elevation_r	scapula_upward_rot_r	scapula_winging_r	shoulder_elv_r	plane_of_elev_r	axial_rot_r	elbow_flexion_r	pro_sup_r	wrist_flex_r	wrist_dev_r	clav_prot_l	clav_elev_l	scapula_abduction_l	scapula_elevation_l	scapula_upward_rot_l	scapula_winging_l	shoulder_elv_l	plane_of_elev_l	axial_rot_l	elbow_flexion_l	pro_sup_l	wrist_flex_l	wrist_dev_l
      3.29000000	     32.79609548	     24.33528243	     32.02837627	    -99.94194604	    856.95832623	    -50.28179569	     11.84054714	     33.53597093	     24.14023648	     45.00000000	    -45.00000000	   2072.56503037	   3313.89359758	     23.78182872	    179.99999979	   2883.35910874	    186.39704788	     18.76880030	     13.13306539	     -6.40330137	    -45.00000000	    -39.90887243	     45.00000000	    -45.00000000	   2986.69308212	  -3164.01395575	     28.70447555	     34.26109352	   2510.24187549	   -127.30418410	     -8.80589171	      1.77491649
      3.30000000	     32.70361089	     24.44741263	     32.17826168	    -99.86735720	    856.33463812	    -50.23946358	     11.25906326	     33.59646537	     23.82464183	     45.00000000	    -45.00000000	   2072.75618108	   3314.08926292	     23.77963159	    179.99999979	   2883.42665898	    186.27555611	     19.04412730	     12.72511145	     -6.63880570	    -45.00000000	    -39.78694355	     45.00000000	    -45.00000000	   2986.41973687	  -3163.84306061	     28.45966001	     34.09913480	   2510.00775142	   -126.95144924	     -8.33827934	      1.92589413
      3.31000000	     32.75676126	     24.32179480	     32.14917499	    -99.76577501	    855.75685615	    -50.21035350	     11.71636992	     33.49463967	     24.15995858	     45.00000000	    -45.00000000	   2072.52857962	   3313.84433229	     23.80396717	    179.99999979	   2883.29284226	    186.36451819	     18.76575214	     13.17439740	     -6.44153211	    -45.00000000	    -39.85617218	     45.00000000	    -45.00000000	   2986.70612553	  -3164.15120826	     28.70976425	     34.18061159	   2510.14486314	   -126.18080314	     -8.52432558	      2.11557394
      3.32000000	     32.69546372	     24.31866907	     32.20713434	    -99.61566122	    855.23342773	    -50.19345232	     11.44028753	     33.53508846	     24.00969314	     45.00000000	    -45.00000000	   2072.64567036	   3313.88392618	     23.78131112	    179.99999979	   2883.27064505	    186.27705281	     19.01868421	     12.94819148	     -6.60673471	    -45.00000000	    -39.77652165	     45.00000000	    -45.00000000	   2986.47926789	  -3164.05850464	     28.56582477	     34.10717092	   2509.99651213	   -124.98953788	     -7.90822235	      2.44431771
      3.33000000	     32.58097673	     24.40355121	     32.47942136	    -99.40784174	    854.78243780	    -50.18656904	     11.67996710	     33.61111015	     23.96240021	     45.00000000	    -45.00000000	   2072.67437015	   3313.90508384	     23.78474430	    179.99999979	   2883.34243701	    186.22897830	     18.96567006	     12.71976222	     -6.58689421	    -45.00000000	    -39.78148168	     45.00000000	    -45.00000000	   2986.54252483	  -3164.00374976	     28.60384245	     34.07574775	   2509.78341785	   -123.33687282	     -7.51814461	      2.66169795
      3.34000000	     32.73564467	     24.15996761	     32.31108085	    -99.13018547	    854.39895540	    -50.18613421	     11.45481369	     33.48422825	     24.18370827	     45.00000000	    -45.00000000	   2072.64505318	   3313.85764576	     23.74871753	    179.99999979	   2883.23132585	    186.25313858	     19.09513120	     13.00987364	     -6.58628946	    -45.00000000	    -39.75930594	     45.00000000	    -45.00000000	   2986.48002626	  -3164.18103115	     28.56742845	     34.22190010	   2509.84146299	   -121.17048799	     -6.80347921	      3.29877418
      3.35000000	     32.61194531	     24.27447140	     32.60905231	    -98.77445924	    854.08168074	    -50.18777052	     11.64848607	     33.65426051	     24.10283378	     45.00000000	    -45.00000000	   2072.55196113	   3313.86662990	     23.84002314	    179.99999979	   2883.24069844	    185.91952495	     19.05456857	     12.88029431	     -6.60979820	    -45.00000000	    -39.62408349	     45.00000000	    -45.00000000	   2986.45941584	  -3161.78765400	     25.11008742	     24.81040437	   2509.71907468	     43.72570120	     12.40003718	    -22.81064895
